<svg id="visual" viewBox="0 0 900 600" width="900" height="600" xmlns="http://www.w3.org/2000/svg" xmlns:xlink="http://www.w3.org/1999/xlink" version="1.1"><rect x="0" y="0" width="900" height="600" fill="#200000"></rect><path d="M0 332L10 328.8C20 325.7 40 319.3 60 314.7C80 310 100 307 120 305.7C140 304.3 160 304.7 180 303C200 301.3 220 297.7 240 283C260 268.3 280 242.7 300 248.5C320 254.3 340 291.7 360 292.3C380 293 400 257 420 248.7C440 240.3 460 259.7 480 258.8C500 258 520 237 540 225C560 213 580 210 600 227.3C620 244.7 640 282.3 660 298.8C680 315.3 700 310.7 720 303.2C740 295.7 760 285.3 780 285.3C800 285.3 820 295.7 840 289.8C860 284 880 262 890 251L900 240L900 0L890 0C880 0 860 0 840 0C820 0 800 0 780 0C760 0 740 0 720 0C700 0 680 0 660 0C640 0 620 0 600 0C580 0 560 0 540 0C520 0 500 0 480 0C460 0 440 0 420 0C400 0 380 0 360 0C340 0 320 0 300 0C280 0 260 0 240 0C220 0 200 0 180 0C160 0 140 0 120 0C100 0 80 0 60 0C40 0 20 0 10 0L0 0Z" fill="#480200"></path><path d="M0 260L10 251.2C20 242.3 40 224.7 60 226.2C80 227.7 100 248.3 120 249C140 249.7 160 230.3 180 218.5C200 206.7 220 202.3 240 206.3C260 210.3 280 222.7 300 224.5C320 226.3 340 217.7 360 228.7C380 239.7 400 270.3 420 281.5C440 292.7 460 284.3 480 269.2C500 254 520 232 540 224C560 216 580 222 600 227.5C620 233 640 238 660 244.2C680 250.3 700 257.7 720 248.7C740 239.7 760 214.3 780 218.5C800 222.7 820 256.3 840 258.3C860 260.3 880 230.7 890 215.8L900 201L900 0L890 0C880 0 860 0 840 0C820 0 800 0 780 0C760 0 740 0 720 0C700 0 680 0 660 0C640 0 620 0 600 0C580 0 560 0 540 0C520 0 500 0 480 0C460 0 440 0 420 0C400 0 380 0 360 0C340 0 320 0 300 0C280 0 260 0 240 0C220 0 200 0 180 0C160 0 140 0 120 0C100 0 80 0 60 0C40 0 20 0 10 0L0 0Z" fill="#4d0201"></path><path d="M0 203L10 202.3C20 201.7 40 200.3 60 198.5C80 196.7 100 194.3 120 192.2C140 190 160 188 180 181.5C200 175 220 164 240 172.5C260 181 280 209 300 207C320 205 340 173 360 175.8C380 178.7 400 216.3 420 230.3C440 244.3 460 234.7 480 227.5C500 220.3 520 215.7 540 219.2C560 222.7 580 234.3 600 235.7C620 237 640 228 660 211.3C680 194.7 700 170.3 720 160.2C740 150 760 154 780 158.7C800 163.3 820 168.7 840 169.7C860 170.7 880 167.3 890 165.7L900 164L900 0L890 0C880 0 860 0 840 0C820 0 800 0 780 0C760 0 740 0 720 0C700 0 680 0 660 0C640 0 620 0 600 0C580 0 560 0 540 0C520 0 500 0 480 0C460 0 440 0 420 0C400 0 380 0 360 0C340 0 320 0 300 0C280 0 260 0 240 0C220 0 200 0 180 0C160 0 140 0 120 0C100 0 80 0 60 0C40 0 20 0 10 0L0 0Z" fill="#530201"></path><path d="M0 154L10 149.5C20 145 40 136 60 129C80 122 100 117 120 125.2C140 133.3 160 154.7 180 163.2C200 171.7 220 167.3 240 158C260 148.7 280 134.3 300 129.5C320 124.7 340 129.3 360 129.5C380 129.7 400 125.3 420 128C440 130.7 460 140.3 480 148.8C500 157.3 520 164.7 540 167.8C560 171 580 170 600 164.5C620 159 640 149 660 148C680 147 700 155 720 160.3C740 165.7 760 168.3 780 161.8C800 155.3 820 139.7 840 141.2C860 142.7 880 161.3 890 170.7L900 180L900 0L890 0C880 0 860 0 840 0C820 0 800 0 780 0C760 0 740 0 720 0C700 0 680 0 660 0C640 0 620 0 600 0C580 0 560 0 540 0C520 0 500 0 480 0C460 0 440 0 420 0C400 0 380 0 360 0C340 0 320 0 300 0C280 0 260 0 240 0C220 0 200 0 180 0C160 0 140 0 120 0C100 0 80 0 60 0C40 0 20 0 10 0L0 0Z" fill="#580201"></path><path d="M0 89L10 93.5C20 98 40 107 60 107.8C80 108.7 100 101.3 120 106.3C140 111.3 160 128.7 180 127.3C200 126 220 106 240 104.7C260 103.3 280 120.7 300 134.2C320 147.7 340 157.3 360 154.5C380 151.7 400 136.3 420 124.8C440 113.3 460 105.7 480 107.8C500 110 520 122 540 121.5C560 121 580 108 600 113.3C620 118.7 640 142.3 660 147.5C680 152.7 700 139.3 720 129.7C740 120 760 114 780 117.2C800 120.3 820 132.7 840 142.3C860 152 880 159 890 162.5L900 166L900 0L890 0C880 0 860 0 840 0C820 0 800 0 780 0C760 0 740 0 720 0C700 0 680 0 660 0C640 0 620 0 600 0C580 0 560 0 540 0C520 0 500 0 480 0C460 0 440 0 420 0C400 0 380 0 360 0C340 0 320 0 300 0C280 0 260 0 240 0C220 0 200 0 180 0C160 0 140 0 120 0C100 0 80 0 60 0C40 0 20 0 10 0L0 0Z" fill="#5d0201"></path><path d="M0 91L10 90.2C20 89.3 40 87.7 60 85.2C80 82.7 100 79.3 120 85.3C140 91.3 160 106.7 180 112.7C200 118.7 220 115.3 240 108C260 100.7 280 89.3 300 84.5C320 79.7 340 81.3 360 78.7C380 76 400 69 420 67.5C440 66 460 70 480 79C500 88 520 102 540 104C560 106 580 96 600 89.2C620 82.3 640 78.7 660 74.5C680 70.3 700 65.7 720 64.5C740 63.3 760 65.7 780 72.7C800 79.7 820 91.3 840 90.8C860 90.3 880 77.7 890 71.3L900 65L900 0L890 0C880 0 860 0 840 0C820 0 800 0 780 0C760 0 740 0 720 0C700 0 680 0 660 0C640 0 620 0 600 0C580 0 560 0 540 0C520 0 500 0 480 0C460 0 440 0 420 0C400 0 380 0 360 0C340 0 320 0 300 0C280 0 260 0 240 0C220 0 200 0 180 0C160 0 140 0 120 0C100 0 80 0 60 0C40 0 20 0 10 0L0 0Z" fill="#630201"></path><path d="M0 54L10 56.5C20 59 40 64 60 63.3C80 62.7 100 56.3 120 51C140 45.7 160 41.3 180 45.5C200 49.7 220 62.3 240 61C260 59.7 280 44.3 300 42.5C320 40.7 340 52.3 360 53.8C380 55.3 400 46.7 420 43C440 39.3 460 40.7 480 43.2C500 45.7 520 49.3 540 52.3C560 55.3 580 57.7 600 54.5C620 51.3 640 42.7 660 40.8C680 39 700 44 720 50.3C740 56.7 760 64.3 780 69C800 73.7 820 75.3 840 71C860 66.7 880 56.3 890 51.2L900 46L900 0L890 0C880 0 860 0 840 0C820 0 800 0 780 0C760 0 740 0 720 0C700 0 680 0 660 0C640 0 620 0 600 0C580 0 560 0 540 0C520 0 500 0 480 0C460 0 440 0 420 0C400 0 380 0 360 0C340 0 320 0 300 0C280 0 260 0 240 0C220 0 200 0 180 0C160 0 140 0 120 0C100 0 80 0 60 0C40 0 20 0 10 0L0 0Z" fill="#680200"></path></svg>