<svg id="visual" viewBox="0 0 900 600" width="900" height="600" xmlns="http://www.w3.org/2000/svg" xmlns:xlink="http://www.w3.org/1999/xlink" version="1.1"><rect x="0" y="0" width="900" height="600" fill="#FFFFFF"></rect><path d="M0 491L16.7 491.8C33.3 492.7 66.7 494.3 100 486C133.3 477.7 166.7 459.3 200 462.3C233.3 465.3 266.7 489.7 300 503.8C333.3 518 366.7 522 400 519.2C433.3 516.3 466.7 506.7 500 497.5C533.3 488.3 566.7 479.7 600 472C633.3 464.3 666.7 457.7 700 457.8C733.3 458 766.7 465 800 464.7C833.3 464.3 866.7 456.7 883.3 452.8L900 449L900 601L883.3 601C866.7 601 833.3 601 800 601C766.7 601 733.3 601 700 601C666.7 601 633.3 601 600 601C566.7 601 533.3 601 500 601C466.7 601 433.3 601 400 601C366.7 601 333.3 601 300 601C266.7 601 233.3 601 200 601C166.7 601 133.3 601 100 601C66.7 601 33.3 601 16.7 601L0 601Z" fill="#680000"></path><path d="M0 501L16.7 503.5C33.3 506 66.7 511 100 509.5C133.3 508 166.7 500 200 504C233.3 508 266.7 524 300 524.3C333.3 524.7 366.7 509.3 400 508.2C433.3 507 466.7 520 500 523.3C533.3 526.7 566.7 520.3 600 512.7C633.3 505 666.7 496 700 492.5C733.3 489 766.7 491 800 496.2C833.3 501.3 866.7 509.7 883.3 513.8L900 518L900 601L883.3 601C866.7 601 833.3 601 800 601C766.7 601 733.3 601 700 601C666.7 601 633.3 601 600 601C566.7 601 533.3 601 500 601C466.7 601 433.3 601 400 601C366.7 601 333.3 601 300 601C266.7 601 233.3 601 200 601C166.7 601 133.3 601 100 601C66.7 601 33.3 601 16.7 601L0 601Z" fill="#560205"></path><path d="M0 495L16.7 502C33.3 509 66.7 523 100 522.2C133.3 521.3 166.7 505.7 200 505.8C233.3 506 266.7 522 300 522.7C333.3 523.3 366.7 508.7 400 507.8C433.3 507 466.7 520 500 528.2C533.3 536.3 566.7 539.7 600 537.8C633.3 536 666.7 529 700 528.8C733.3 528.7 766.7 535.3 800 536C833.3 536.7 866.7 531.3 883.3 528.7L900 526L900 601L883.3 601C866.7 601 833.3 601 800 601C766.7 601 733.3 601 700 601C666.7 601 633.3 601 600 601C566.7 601 533.3 601 500 601C466.7 601 433.3 601 400 601C366.7 601 333.3 601 300 601C266.7 601 233.3 601 200 601C166.7 601 133.3 601 100 601C66.7 601 33.3 601 16.7 601L0 601Z" fill="#430506"></path><path d="M0 561L16.7 555.3C33.3 549.7 66.7 538.3 100 531.5C133.3 524.7 166.7 522.3 200 528.5C233.3 534.7 266.7 549.3 300 556.7C333.3 564 366.7 564 400 559C433.3 554 466.7 544 500 544.3C533.3 544.7 566.7 555.3 600 558.2C633.3 561 666.7 556 700 555.3C733.3 554.7 766.7 558.3 800 559C833.3 559.7 866.7 557.3 883.3 556.2L900 555L900 601L883.3 601C866.7 601 833.3 601 800 601C766.7 601 733.3 601 700 601C666.7 601 633.3 601 600 601C566.7 601 533.3 601 500 601C466.7 601 433.3 601 400 601C366.7 601 333.3 601 300 601C266.7 601 233.3 601 200 601C166.7 601 133.3 601 100 601C66.7 601 33.3 601 16.7 601L0 601Z" fill="#300604"></path><path d="M0 570L16.7 569.7C33.3 569.3 66.7 568.7 100 564.5C133.3 560.3 166.7 552.7 200 555.2C233.3 557.7 266.7 570.3 300 572.3C333.3 574.3 366.7 565.7 400 563C433.3 560.3 466.7 563.7 500 569.3C533.3 575 566.7 583 600 586.2C633.3 589.3 666.7 587.7 700 581C733.3 574.3 766.7 562.7 800 557.7C833.3 552.7 866.7 554.3 883.3 555.2L900 556L900 601L883.3 601C866.7 601 833.3 601 800 601C766.7 601 733.3 601 700 601C666.7 601 633.3 601 600 601C566.7 601 533.3 601 500 601C466.7 601 433.3 601 400 601C366.7 601 333.3 601 300 601C266.7 601 233.3 601 200 601C166.7 601 133.3 601 100 601C66.7 601 33.3 601 16.7 601L0 601Z" fill="#200000"></path></svg>